<svg width="80" height="80" viewBox="0 0 80 80" fill="none" xmlns="http://www.w3.org/2000/svg">
<path d="M78.5 40C78.5 61.263 61.263 78.5 40 78.5C18.737 78.5 1.5 61.263 1.5 40C1.5 18.737 18.737 1.5 40 1.5C61.263 1.5 78.5 18.737 78.5 40Z" fill="#201F2D" stroke="#7A78A1" stroke-width="3"/>
<path d="M59.4462 28.3823V38.4411C59.4462 40.946 58.6179 43.0563 57.1386 44.5158C55.6791 45.9951 53.5687 46.8234 51.0639 46.8234V50.3933C51.0639 51.7345 49.5649 52.5431 48.4604 51.7937L46.5473 50.5314C46.7248 49.92 46.8037 49.2494 46.8037 48.5394V40.512C46.8037 36.4885 44.1214 33.8062 40.0978 33.8062H26.7058C26.4297 33.8062 26.1733 33.8259 25.9169 33.8457V28.3823C25.9169 23.3529 29.2699 20 34.2992 20H51.0639C56.0933 20 59.4462 23.3529 59.4462 28.3823Z" fill="#201F2D" stroke="#7A78A1" stroke-width="3" stroke-miterlimit="10" stroke-linecap="round" stroke-linejoin="round"/>
<path d="M46.8037 40.5121V48.5394C46.8037 49.2494 46.7248 49.92 46.5473 50.5314C45.8176 53.4307 43.4113 55.2453 40.0979 55.2453H34.7332L28.7768 59.2096C27.8892 59.821 26.7058 59.1702 26.7058 58.1051V55.2453C24.6941 55.2453 23.0176 54.5747 21.854 53.411C20.6706 52.2276 20 50.5512 20 48.5394V40.5121C20 36.7647 22.3273 34.181 25.9169 33.8457C26.1733 33.826 26.4297 33.8062 26.7058 33.8062H40.0979C44.1214 33.8062 46.8037 36.4886 46.8037 40.5121Z" fill="#201F2D" stroke="#7A78A1" stroke-width="3" stroke-miterlimit="10" stroke-linecap="round" stroke-linejoin="round"/>
</svg>
